<?xml version="1.0" encoding="utf-8"?>
<!-- Generator: Adobe Illustrator 22.1.0, SVG Export Plug-In . SVG Version: 6.00 Build 0)  -->
<svg version="1.1" id="Layer_1" xmlns="http://www.w3.org/2000/svg" xmlns:xlink="http://www.w3.org/1999/xlink" x="0px" y="0px"
	 viewBox="0 0 280 240" style="enable-background:new 0 0 280 240;" xml:space="preserve">
<style type="text/css">
	.st0{fill:none;stroke:#D90030;stroke-width:6;stroke-linecap:round;stroke-linejoin:round;}
	.st1{fill:none;stroke:#3A5C76;stroke-width:6;stroke-linecap:round;stroke-linejoin:round;stroke-miterlimit:10;}
</style>
<g>
	<path class="st0" d="M48.9,157.9H30.2c-7.3,0-13.1,5.9-13.1,13.1v1.5c0,7.3,5.9,13.1,13.1,13.1H254c7.3,0,13.1-5.8,13.2-13.1l0,0
		v-29.8c0-7.3-5.9-13.1-13.1-13.1l0,0h-168c-3.3,0-6.4-1.2-8.8-3.4L34.7,87.9c-5.3-4.7-13.3-4.5-18.3,0.6l0,0
		c-5,5.2-4.9,13.5,0.3,18.6l0,0l0.2,0.2l50,46.4c2.4,2.3,5.6,3.5,8.9,3.5h169.1"/>
	<path class="st1" d="M185.3,52.6L185.3,52.6c4.3,0,7.7,3.5,7.8,7.7v20.3c0,4.3-3.5,7.7-7.7,7.7l0,0l0,0c-4.3,0-7.7-3.5-7.7-7.7l0,0
		V60.3C177.6,56,181.1,52.6,185.3,52.6z"/>
	<circle class="st0" cx="51.3" cy="219.9" r="11.7"/>
	<circle class="st0" cx="243.8" cy="219.9" r="11.7"/>
	<path class="st0" d="M34.5,87.7c8.7-9.9,28.4-6.8,43.8,6.8c12.2,10.7,18.2,24.8,16,35.1"/>
	<path class="st1" d="M185.3,52.6V26.4c0-4.4,3.6-8,8-8h38.5"/>
	<path class="st1" d="M221.8,117.7V8.4"/>
	<path class="st1" d="M178.1,117.7c7.4-12.1,6.8-29.2,6.8-29.2"/>
</g>
</svg>
