<?xml version="1.0" encoding="utf-8"?>
<!-- Generator: Adobe Illustrator 22.1.0, SVG Export Plug-In . SVG Version: 6.00 Build 0)  -->
<svg version="1.1" id="Layer_1" xmlns="http://www.w3.org/2000/svg" xmlns:xlink="http://www.w3.org/1999/xlink" x="0px" y="0px"
	 viewBox="0 0 240 240" style="enable-background:new 0 0 240 240;" xml:space="preserve">
<style type="text/css">
	.st0{fill:none;stroke:#D90030;stroke-width:6;stroke-linecap:round;stroke-linejoin:round;}
	.st1{fill:none;stroke:#3A5C76;stroke-width:6;stroke-linecap:round;stroke-linejoin:round;stroke-miterlimit:10;}
</style>
<g>
	<path class="st0" d="M157.1,60c5.3-2.6,11.2-4,17.2-3.9c20.8,0,33.7,17.3,37.4,32.7c3.3,13,0.6,26.7-7.3,37.5
		c-7.9,10.7-9.6,19.9-12.3,36.4s-9.8,59.2-9.8,59.2c-1.3,5.6-6.8,9-12.4,7.8c-3.8-0.9-6.8-3.8-7.7-7.6l-11.7-47
		c-1.7-7.4-9.1-11.9-16.4-10.2c-5.1,1.2-9,5.1-10.2,10.2l-11.7,47c-1.4,5.5-7,8.9-12.5,7.6c-3.8-0.9-6.7-3.9-7.6-7.7
		c0,0-7-42.7-9.8-59.2c-2.8-16.5-4.4-25.7-12.3-36.4c-7.9-10.8-10.6-24.5-7.3-37.5c3.7-15.4,16.7-32.7,37.4-32.7
		c7.9-0.1,15.6,2.2,22.1,6.6l25.7,17.1"/>
	<line class="st1" x1="46" y1="39.1" x2="61.7" y2="54.7"/>
	<line class="st1" x1="99.7" y1="38.1" x2="99.7" y2="22"/>
	<line class="st1" x1="26.9" y1="91.3" x2="42.2" y2="91.3"/>
</g>
</svg>
