<?xml version="1.0" encoding="utf-8"?>
<!-- Generator: Adobe Illustrator 22.1.0, SVG Export Plug-In . SVG Version: 6.00 Build 0)  -->
<svg version="1.1" id="Layer_1" xmlns="http://www.w3.org/2000/svg" xmlns:xlink="http://www.w3.org/1999/xlink" x="0px" y="0px"
	 viewBox="0 0 240 240" style="enable-background:new 0 0 240 240;" xml:space="preserve">
<style type="text/css">
	.st0{fill:none;stroke:#3A5C76;stroke-width:6;stroke-linecap:round;stroke-linejoin:round;stroke-miterlimit:10;}
	.st1{fill:none;stroke:#D90030;stroke-width:6;stroke-linecap:round;stroke-linejoin:round;}
</style>
<g>
	<polyline class="st0" points="51.5,138 73.4,138 99.3,138 110.7,110.5 132.5,156 150.5,121 159.5,138 188.5,138 	"/>
	<path class="st1" d="M52,163.9l62.4,63.7l0,0c3,3.1,7.9,3.2,11,0.2c0.1-0.1,0.1-0.1,0.2-0.2l0,0l78.8-80.5l12.8-13.8
		c18.8-22.9,17.9-57.1-3.1-78.7l-1-1.1c-21.8-22.4-57.7-22.8-80-0.9c-0.3,0.3-0.6,0.6-0.9,0.9l-12,12.4L108,53.5
		c-21.8-22.4-57.7-22.8-80-1c-0.3,0.3-0.7,0.6-1,1l-1,1.1C7.1,73.9,4.5,103.5,17.7,126"/>
</g>
</svg>
